<svg width="56" height="56" viewBox="0 0 56 56" fill="none" xmlns="http://www.w3.org/2000/svg">
<mask id="mask0_617_3861" style="mask-type:luminance" maskUnits="userSpaceOnUse" x="0" y="0" width="56" height="56">
<path d="M56 0H0V56H56V0Z" fill="white"/>
</mask>
<g mask="url(#mask0_617_3861)">
<mask id="mask1_617_3861" style="mask-type:luminance" maskUnits="userSpaceOnUse" x="0" y="0" width="56" height="56">
<path d="M56 0H0V56H56V0Z" fill="white"/>
</mask>
<g mask="url(#mask1_617_3861)">
<path d="M28 56C12.5352 56 0 43.4669 0 28.0104C0 12.5539 12.5352 0 28 0C43.4648 0 56 12.585 56 27.9896C55.987 43.4435 43.4596 55.987 28 56ZM28 2.1692C13.7174 2.1692 2.13889 13.7434 2.13889 28.0207C2.13889 42.298 13.7174 53.8723 28 53.8723C42.2826 53.8723 53.8611 42.298 53.8611 28.0207C53.8456 13.7512 42.2748 2.18475 28 2.1692Z" fill="white"/>
<path d="M20.5749 16.4619C19.1852 16.4619 18.0601 17.5867 18.0601 18.9732C18.0601 20.3597 19.1852 21.4871 20.5749 21.4871C21.9645 21.4871 23.0871 20.3597 23.0871 18.9732C23.0871 17.5867 21.9619 16.4619 20.5749 16.4619Z" fill="white"/>
<path d="M22.7396 23.3921H18.4048V37.3351H22.7396V23.3921Z" fill="white"/>
<path d="M33.7789 23.0474C31.6686 23.0474 30.2556 24.2032 29.6775 25.2995H29.6204V23.3946H25.4619V37.3376H29.7941V30.4413C29.7941 28.622 30.1415 26.8622 32.3971 26.8622C34.6527 26.8622 34.6501 28.9433 34.6501 30.5579V37.3376H38.9823V29.6897C38.9823 25.937 38.1708 23.0474 33.7815 23.0474" fill="white"/>
</g>
</g>
</svg>
