<svg width="56" height="56" viewBox="0 0 56 56" fill="none" xmlns="http://www.w3.org/2000/svg">
<path d="M28 56C12.5352 56 0 43.4648 0 28C0 12.5352 12.5352 0 28 0C43.457 0 55.9896 12.5222 56 27.9793C56.0104 43.4441 43.4856 55.9896 28.0207 56C28.013 56 28.0078 56 28 56ZM28 2.14926C13.7174 2.14926 2.13889 13.7278 2.13889 28.0104C2.13889 42.293 13.7174 53.8715 28 53.8715C42.2826 53.8715 53.8611 42.293 53.8611 28.0104C53.8611 13.7278 42.2826 2.14926 28 2.14926Z" fill="white"/>
<path d="M38.4405 34.8187H36.4571V33.6598C36.4571 33.1465 36.8719 32.7291 37.3853 32.7213H37.5097C38.0308 32.7213 38.456 33.1387 38.4638 33.6598L38.4405 34.8187ZM30.9842 32.3428C30.5253 32.3065 30.1208 32.6435 30.0742 33.1024V38.7102C30.1234 39.1665 30.5253 39.5035 30.9842 39.4698C31.4897 39.4698 31.9045 39.1172 31.9045 38.7102V33.1024C31.9045 32.6876 31.4897 32.3428 30.9842 32.3428ZM43.0942 29.2032V39.8769C43.0942 42.4409 40.8801 44.5435 38.1682 44.5435H17.8501C15.1253 44.5435 12.906 42.4383 12.906 39.8769V29.2032C12.906 26.6365 15.1279 24.5365 17.8501 24.5365H38.1579C40.8801 24.5365 43.0838 26.6106 43.0838 29.2032M19.2034 41.0461V29.7943H21.726V28.1246H15.0138V29.7709H17.1112V41.0461H19.2034ZM26.7479 31.4743H24.653V37.4735C24.653 38.3576 24.7049 38.7698 24.653 38.9409C24.4767 39.4024 23.7145 39.8976 23.4138 38.9928C23.3619 38.8165 23.4138 38.3576 23.4138 37.5254V31.4743H21.3086V37.4372C21.3086 38.3395 21.2905 39.0291 21.3086 39.3272C21.3527 39.8769 21.3371 40.5146 21.8271 40.8828C22.7734 41.5543 24.5856 40.7765 25.0367 39.8043V41.0409H26.7167L26.7479 31.4743ZM33.4601 38.3498V33.3409C33.4601 31.4483 32.0367 30.2972 30.0897 31.8372V28.122H28.0001V40.9735L29.7164 40.9398L29.8849 40.1439C32.0782 42.1583 33.4575 40.7791 33.4575 38.355M40.0297 37.6835L38.456 37.7017V38.7983C38.4482 39.2702 38.0645 39.6461 37.5927 39.6461H37.2919C36.8201 39.6461 36.439 39.2676 36.4338 38.7958V36.4624H40.0349V35.1091C40.0427 34.2613 40.009 33.4135 39.9286 32.5709C39.6693 30.7743 37.1519 30.4969 35.879 31.4095C35.459 31.6946 35.1479 32.112 34.9923 32.5943C34.7953 33.2839 34.7071 33.9995 34.733 34.7176V37.6991C34.733 42.6509 40.7453 41.9432 40.0375 37.6809M31.9564 21.498C32.0653 21.752 32.239 21.9724 32.4619 22.1357C32.716 22.3095 33.0193 22.4002 33.3279 22.395C33.6182 22.4002 33.9008 22.3095 34.1316 22.1357C34.3882 21.9361 34.5905 21.6795 34.7253 21.3839L34.6734 22.2135H37.0067V12.2398H35.166V19.9865C35.1582 20.4091 34.8108 20.7487 34.3882 20.7487C33.9656 20.7487 33.6182 20.4091 33.6105 19.9865V12.2398H31.6997V18.952C31.6997 19.8024 31.7179 20.3754 31.7334 20.6683C31.7671 20.9509 31.8371 21.2309 31.9382 21.498M24.8734 15.8746C24.8501 15.1202 24.9305 14.3683 25.1119 13.6372C25.3971 12.538 26.4212 11.7939 27.5542 11.8613C28.0364 11.8535 28.516 11.9572 28.9516 12.1646C29.3119 12.3591 29.6153 12.6417 29.8356 12.9865C30.0508 13.3002 30.2012 13.6528 30.279 14.0235C30.3697 14.5576 30.4086 15.0995 30.393 15.6413V18.1691C30.4138 18.8483 30.3749 19.5302 30.279 20.2043C30.2142 20.6372 30.056 21.0495 29.8149 21.4124C29.6023 21.7702 29.2886 22.058 28.9127 22.2369C28.5186 22.4339 28.0805 22.5272 27.6397 22.5117C27.1808 22.522 26.7245 22.4443 26.2942 22.2809C25.9416 22.1461 25.6382 21.905 25.4282 21.5913C25.2105 21.2569 25.0627 20.8809 24.9953 20.4869C24.8916 19.8335 24.8475 19.175 24.863 18.5139V15.8746H24.8734ZM26.7038 19.8258C26.6493 20.3391 27.0201 20.798 27.5334 20.8524C28.0467 20.9069 28.5056 20.5361 28.5601 20.0228C28.5679 19.958 28.5679 19.8906 28.5601 19.8258V14.5291C28.599 14.0158 28.2127 13.5698 27.7019 13.5309C27.1886 13.492 26.7427 13.8783 26.7038 14.3891C26.7012 14.4357 26.7012 14.4824 26.7038 14.5291V19.8258ZM20.2223 22.5065H22.4338V14.8739L25.0264 8.33797H22.636L21.2593 13.1835L19.8412 8.31982H17.4534L20.2223 14.8739V22.5065Z" fill="white"/>
</svg>
