<svg width="56" height="56" viewBox="0 0 56 56" fill="none" xmlns="http://www.w3.org/2000/svg">
<mask id="mask0_617_2549" style="mask-type:luminance" maskUnits="userSpaceOnUse" x="0" y="0" width="56" height="56">
<path d="M56 0H0V56H56V0Z" fill="white"/>
</mask>
<g mask="url(#mask0_617_2549)">
<mask id="mask1_617_2549" style="mask-type:luminance" maskUnits="userSpaceOnUse" x="0" y="0" width="56" height="56">
<path d="M56 0H0V56H56V0Z" fill="white"/>
</mask>
<g mask="url(#mask1_617_2549)">
<path d="M28 56C12.5352 56 0 43.4669 0 28.0104C0 12.5539 12.5352 0 28 0C43.4648 0 56 12.585 56 27.9896C55.987 43.4435 43.4596 55.987 28 56ZM28 2.1692C13.7174 2.1692 2.13889 13.7434 2.13889 28.0207C2.13889 42.298 13.7174 53.8723 28 53.8723C42.2826 53.8723 53.8611 42.298 53.8611 28.0207C53.8456 13.7512 42.2748 2.18475 28 2.1692Z" fill="white"/>
<path d="M28.0052 31.9678L24.78 29.5239L15.5737 36.3529C15.9082 36.6276 16.3541 36.7935 16.8545 36.7935H39.143C39.6408 36.7935 40.0867 36.6276 40.4211 36.3529L31.2148 29.5239L28.0026 31.9678H28.0052Z" fill="white"/>
<path d="M40.4238 21.1374C40.0972 20.8626 39.6435 20.6968 39.1457 20.6968H16.8572C16.3672 20.6968 15.9109 20.8626 15.5764 21.1374L28.0079 30.3558L40.4264 21.1374H40.4238Z" fill="white"/>
<path d="M14.9851 22.1118V35.4821L23.9736 28.8708L14.9851 22.1118Z" fill="white"/>
<path d="M32.0264 28.8708L41.0149 35.482V22.104L32.0264 28.8708Z" fill="white"/>
</g>
</g>
</svg>
