<svg width="56" height="56" viewBox="0 0 56 56" fill="none" xmlns="http://www.w3.org/2000/svg">
<mask id="mask0_617_1267" style="mask-type:luminance" maskUnits="userSpaceOnUse" x="0" y="0" width="56" height="56">
<path d="M56 0H0V56H56V0Z" fill="white"/>
</mask>
<g mask="url(#mask0_617_1267)">
<mask id="mask1_617_1267" style="mask-type:luminance" maskUnits="userSpaceOnUse" x="0" y="0" width="56" height="56">
<path d="M56 0H0V56H56V0Z" fill="white"/>
</mask>
<g mask="url(#mask1_617_1267)">
<path d="M28 56C12.5352 56 0 43.4669 0 28.0104C0 12.5539 12.5352 0 28 0C43.4648 0 56 12.585 56 27.9896C55.987 43.4435 43.4596 55.987 28 56ZM28 2.1692C13.7174 2.1692 2.13889 13.7434 2.13889 28.0207C2.13889 42.298 13.7174 53.8723 28 53.8723C42.2826 53.8723 53.8611 42.298 53.8611 28.0207C53.8456 13.7512 42.2748 2.18475 28 2.1692Z" fill="white"/>
<path d="M21.1504 28.863H23.9582V40.5875C23.953 40.8182 24.1371 41.0074 24.3678 41.0126H29.1382C29.369 41.0126 29.5556 40.8234 29.553 40.5927V28.9304H32.7834C32.9934 28.9304 33.1723 28.7749 33.1982 28.5649L33.6882 24.2499C33.7167 24.0218 33.556 23.8145 33.3278 23.786H29.5556V21.0674C29.5556 20.251 29.9886 19.8389 30.8519 19.8389H33.2864C33.5171 19.8389 33.7012 19.6497 33.7012 19.4191V15.4565C33.7012 15.2258 33.5171 15.0392 33.2864 15.0366H29.7656C29.1849 15.0366 27.173 15.1532 25.563 16.6408C24.4482 17.6412 23.9012 19.1262 24.0982 20.6112V23.773H21.1504C20.9197 23.773 20.733 23.9622 20.7356 24.1929V28.4587C20.7434 28.6842 20.9249 28.863 21.1504 28.863Z" fill="white"/>
</g>
</g>
</svg>
