<svg width="1440" height="1054" viewBox="0 0 1440 1054" fill="none" xmlns="http://www.w3.org/2000/svg">
<g opacity="0.2">
<g clip-path="url(#clip0_1203_1995)">
<rect width="1440" height="848.559" transform="translate(0 103.613)" fill="#D3CBBC"/>
<g opacity="0.4">
<rect width="1440" height="1320" transform="translate(0 -172.387)" fill="#D3CBBC"/>
<line x1="1464" y1="500.113" x2="-24" y2="500.113" stroke="#D3CBBC"/>
<line x1="1464" y1="524.113" x2="-24" y2="524.113" stroke="#D3CBBC"/>
<line x1="1464" y1="548.113" x2="-24" y2="548.113" stroke="#D3CBBC"/>
<line x1="1464" y1="572.113" x2="-24" y2="572.113" stroke="#D3CBBC"/>
<line x1="1464" y1="596.113" x2="-24" y2="596.113" stroke="#D3CBBC"/>
<line x1="1464" y1="620.113" x2="-24" y2="620.113" stroke="#D3CBBC"/>
<line x1="1464" y1="644.113" x2="-24" y2="644.113" stroke="#D3CBBC"/>
<line x1="1464" y1="668.113" x2="-24" y2="668.113" stroke="#D3CBBC"/>
<line x1="1464" y1="692.113" x2="-24" y2="692.113" stroke="#D3CBBC"/>
<line x1="1464" y1="716.113" x2="-24" y2="716.113" stroke="#D3CBBC"/>
<line x1="1464" y1="740.113" x2="-24" y2="740.113" stroke="#D3CBBC"/>
<line x1="1464" y1="764.113" x2="-24" y2="764.113" stroke="#D3CBBC"/>
<line x1="1464" y1="788.113" x2="-24" y2="788.113" stroke="#D3CBBC"/>
<line x1="1464" y1="812.113" x2="-24" y2="812.113" stroke="#D3CBBC"/>
<line x1="1464" y1="836.113" x2="-24" y2="836.113" stroke="#D3CBBC"/>
<line x1="1464" y1="860.113" x2="-24" y2="860.113" stroke="#D3CBBC"/>
<line x1="1464" y1="884.113" x2="-24" y2="884.113" stroke="#D3CBBC"/>
<line x1="1464" y1="908.113" x2="-24" y2="908.113" stroke="#D3CBBC"/>
<line x1="1464" y1="932.113" x2="-24" y2="932.113" stroke="#D3CBBC"/>
<line x1="24.5" y1="475.613" x2="24.5" y2="1195.61" stroke="#D3CBBC"/>
<line x1="24.5" y1="475.613" x2="24.5" y2="1195.61" stroke="#D3CBBC"/>
<line x1="48.5" y1="475.613" x2="48.5" y2="1195.61" stroke="#D3CBBC"/>
<line x1="72.5" y1="475.613" x2="72.5" y2="1195.61" stroke="#D3CBBC"/>
<line x1="96.5" y1="475.613" x2="96.5" y2="1195.61" stroke="#D3CBBC"/>
<line x1="120.5" y1="475.613" x2="120.5" y2="1195.61" stroke="#D3CBBC"/>
<line x1="144.5" y1="475.613" x2="144.5" y2="1195.61" stroke="#D3CBBC"/>
<line x1="168.5" y1="475.613" x2="168.5" y2="1195.61" stroke="#D3CBBC"/>
<line x1="192.5" y1="475.613" x2="192.5" y2="1195.61" stroke="#D3CBBC"/>
<line x1="216.5" y1="475.613" x2="216.5" y2="1195.61" stroke="#D3CBBC"/>
<line x1="240.5" y1="475.613" x2="240.5" y2="1195.61" stroke="#D3CBBC"/>
<line x1="264.5" y1="475.613" x2="264.5" y2="1195.61" stroke="#D3CBBC"/>
<line x1="288.5" y1="475.613" x2="288.5" y2="1195.61" stroke="#D3CBBC"/>
<line x1="312.5" y1="475.613" x2="312.5" y2="1195.61" stroke="#D3CBBC"/>
<line x1="336.5" y1="475.613" x2="336.5" y2="1195.61" stroke="#D3CBBC"/>
<line x1="360.5" y1="475.613" x2="360.5" y2="1195.61" stroke="#D3CBBC"/>
<line x1="384.5" y1="475.613" x2="384.5" y2="1195.61" stroke="#D3CBBC"/>
<line x1="408.5" y1="475.613" x2="408.5" y2="1195.61" stroke="#D3CBBC"/>
<line x1="432.5" y1="475.613" x2="432.5" y2="1195.61" stroke="#D3CBBC"/>
<line x1="456.5" y1="475.613" x2="456.5" y2="1195.61" stroke="#D3CBBC"/>
<line x1="480.5" y1="475.613" x2="480.5" y2="1195.61" stroke="#D3CBBC"/>
<line x1="504.5" y1="475.613" x2="504.5" y2="1195.61" stroke="#D3CBBC"/>
<line x1="528.5" y1="475.613" x2="528.5" y2="1195.61" stroke="#D3CBBC"/>
<line x1="552.5" y1="475.613" x2="552.5" y2="1195.61" stroke="#D3CBBC"/>
<line x1="576.5" y1="475.613" x2="576.5" y2="1195.61" stroke="#D3CBBC"/>
<line x1="600.5" y1="475.613" x2="600.5" y2="1195.61" stroke="#D3CBBC"/>
<line x1="624.5" y1="475.613" x2="624.5" y2="1195.61" stroke="#D3CBBC"/>
<line x1="648.5" y1="475.613" x2="648.5" y2="1195.61" stroke="#D3CBBC"/>
<line x1="672.5" y1="475.613" x2="672.5" y2="1195.61" stroke="#D3CBBC"/>
<line x1="696.5" y1="475.613" x2="696.5" y2="1195.61" stroke="#D3CBBC"/>
<line x1="720.5" y1="475.613" x2="720.5" y2="1195.61" stroke="#D3CBBC"/>
<line x1="744.5" y1="475.613" x2="744.5" y2="1195.61" stroke="#D3CBBC"/>
<line x1="768.5" y1="475.613" x2="768.5" y2="1195.61" stroke="#D3CBBC"/>
<line x1="792.5" y1="475.613" x2="792.5" y2="1195.61" stroke="#D3CBBC"/>
<line x1="816.5" y1="475.613" x2="816.5" y2="1195.61" stroke="#D3CBBC"/>
<line x1="840.5" y1="475.613" x2="840.5" y2="1195.61" stroke="#D3CBBC"/>
<line x1="864.5" y1="475.613" x2="864.5" y2="1195.61" stroke="#D3CBBC"/>
<line x1="888.5" y1="475.613" x2="888.5" y2="1195.61" stroke="#D3CBBC"/>
<line x1="912.5" y1="475.613" x2="912.5" y2="1195.61" stroke="#D3CBBC"/>
<line x1="936.5" y1="475.613" x2="936.5" y2="1195.61" stroke="#D3CBBC"/>
<line x1="960.5" y1="475.613" x2="960.5" y2="1195.61" stroke="#D3CBBC"/>
<line x1="984.5" y1="475.613" x2="984.5" y2="1195.61" stroke="#D3CBBC"/>
<line x1="1008.5" y1="475.613" x2="1008.5" y2="1195.61" stroke="#D3CBBC"/>
<line x1="1032.5" y1="475.613" x2="1032.5" y2="1195.61" stroke="#D3CBBC"/>
<line x1="1056.5" y1="475.613" x2="1056.5" y2="1195.61" stroke="#D3CBBC"/>
<line x1="1080.5" y1="475.613" x2="1080.5" y2="1195.61" stroke="#D3CBBC"/>
<line x1="1104.5" y1="475.613" x2="1104.5" y2="1195.61" stroke="#D3CBBC"/>
<line x1="1128.5" y1="475.613" x2="1128.5" y2="1195.61" stroke="#D3CBBC"/>
<line x1="1152.5" y1="475.613" x2="1152.5" y2="1195.61" stroke="#D3CBBC"/>
<line x1="1176.5" y1="475.613" x2="1176.5" y2="1195.61" stroke="#D3CBBC"/>
<line x1="1200.5" y1="475.613" x2="1200.5" y2="1195.61" stroke="#D3CBBC"/>
<line x1="1224.5" y1="475.613" x2="1224.5" y2="1195.61" stroke="#D3CBBC"/>
<line x1="1248.5" y1="475.613" x2="1248.5" y2="1195.61" stroke="#D3CBBC"/>
<line x1="1272.5" y1="475.613" x2="1272.5" y2="1195.61" stroke="#D3CBBC"/>
<line x1="1296.5" y1="475.613" x2="1296.5" y2="1195.61" stroke="#D3CBBC"/>
<line x1="1320.5" y1="475.613" x2="1320.5" y2="1195.61" stroke="#D3CBBC"/>
<line x1="1344.5" y1="475.613" x2="1344.5" y2="1195.61" stroke="#D3CBBC"/>
<line x1="1368.5" y1="475.613" x2="1368.5" y2="1195.61" stroke="#D3CBBC"/>
<line x1="1392.5" y1="475.613" x2="1392.5" y2="1195.61" stroke="#D3CBBC"/>
<line x1="1416.5" y1="475.613" x2="1416.5" y2="1195.61" stroke="#D3CBBC"/>
<line x1="0.5" y1="-220.387" x2="0.499969" y2="499.613" stroke="#D3CBBC"/>
<line x1="1464" y1="116.113" x2="-24" y2="116.113" stroke="#D3CBBC"/>
<line x1="1464" y1="140.113" x2="-24" y2="140.113" stroke="#D3CBBC"/>
<line x1="1464" y1="164.113" x2="-24" y2="164.113" stroke="#D3CBBC"/>
<line x1="1464" y1="188.113" x2="-24" y2="188.113" stroke="#D3CBBC"/>
<line x1="1464" y1="212.113" x2="-24" y2="212.113" stroke="#D3CBBC"/>
<line x1="1464" y1="236.113" x2="-24" y2="236.113" stroke="#D3CBBC"/>
<line x1="1464" y1="260.113" x2="-24" y2="260.113" stroke="#D3CBBC"/>
<line x1="1464" y1="284.113" x2="-24" y2="284.113" stroke="#D3CBBC"/>
<line x1="1464" y1="308.113" x2="-24" y2="308.113" stroke="#D3CBBC"/>
<line x1="1464" y1="332.113" x2="-24" y2="332.113" stroke="#D3CBBC"/>
<line x1="1464" y1="356.113" x2="-24" y2="356.113" stroke="#D3CBBC"/>
<line x1="1464" y1="380.113" x2="-24" y2="380.113" stroke="#D3CBBC"/>
<line x1="1464" y1="404.113" x2="-24" y2="404.113" stroke="#D3CBBC"/>
<line x1="1464" y1="428.113" x2="-24" y2="428.113" stroke="#D3CBBC"/>
<line x1="1464" y1="452.113" x2="-24" y2="452.113" stroke="#D3CBBC"/>
<line x1="1464" y1="476.113" x2="-24" y2="476.113" stroke="#D3CBBC"/>
<line x1="24.5" y1="-220.387" x2="24.5" y2="499.613" stroke="#D3CBBC"/>
<line x1="24.5" y1="-220.387" x2="24.5" y2="499.613" stroke="#D3CBBC"/>
<line x1="48.5" y1="-220.387" x2="48.5" y2="499.613" stroke="#D3CBBC"/>
<line x1="72.5" y1="-220.387" x2="72.5" y2="499.613" stroke="#D3CBBC"/>
<line x1="96.5" y1="-220.387" x2="96.5" y2="499.613" stroke="#D3CBBC"/>
<line x1="120.5" y1="-220.387" x2="120.5" y2="499.613" stroke="#D3CBBC"/>
<line x1="144.5" y1="-220.387" x2="144.5" y2="499.613" stroke="#D3CBBC"/>
<line x1="168.5" y1="-220.387" x2="168.5" y2="499.613" stroke="#D3CBBC"/>
<line x1="192.5" y1="-220.387" x2="192.5" y2="499.613" stroke="#D3CBBC"/>
<line x1="216.5" y1="-220.387" x2="216.5" y2="499.613" stroke="#D3CBBC"/>
<line x1="240.5" y1="-220.387" x2="240.5" y2="499.613" stroke="#D3CBBC"/>
<line x1="264.5" y1="-220.387" x2="264.5" y2="499.613" stroke="#D3CBBC"/>
<line x1="288.5" y1="-220.387" x2="288.5" y2="499.613" stroke="#D3CBBC"/>
<line x1="312.5" y1="-220.387" x2="312.5" y2="499.613" stroke="#D3CBBC"/>
<line x1="336.5" y1="-220.387" x2="336.5" y2="499.613" stroke="#D3CBBC"/>
<line x1="360.5" y1="-220.387" x2="360.5" y2="499.613" stroke="#D3CBBC"/>
<line x1="384.5" y1="-220.387" x2="384.5" y2="499.613" stroke="#D3CBBC"/>
<line x1="408.5" y1="-220.387" x2="408.5" y2="499.613" stroke="#D3CBBC"/>
<line x1="432.5" y1="-220.387" x2="432.5" y2="499.613" stroke="#D3CBBC"/>
<line x1="456.5" y1="-220.387" x2="456.5" y2="499.613" stroke="#D3CBBC"/>
<line x1="480.5" y1="-220.387" x2="480.5" y2="499.613" stroke="#D3CBBC"/>
<line x1="504.5" y1="-220.387" x2="504.5" y2="499.613" stroke="#D3CBBC"/>
<line x1="528.5" y1="-220.387" x2="528.5" y2="499.613" stroke="#D3CBBC"/>
<line x1="552.5" y1="-220.387" x2="552.5" y2="499.613" stroke="#D3CBBC"/>
<line x1="576.5" y1="-220.387" x2="576.5" y2="499.613" stroke="#D3CBBC"/>
<line x1="600.5" y1="-220.387" x2="600.5" y2="499.613" stroke="#D3CBBC"/>
<line x1="624.5" y1="-220.387" x2="624.5" y2="499.613" stroke="#D3CBBC"/>
<line x1="648.5" y1="-220.387" x2="648.5" y2="499.613" stroke="#D3CBBC"/>
<line x1="672.5" y1="-220.387" x2="672.5" y2="499.613" stroke="#D3CBBC"/>
<line x1="696.5" y1="-220.387" x2="696.5" y2="499.613" stroke="#D3CBBC"/>
<line x1="720.5" y1="-220.387" x2="720.5" y2="499.613" stroke="#D3CBBC"/>
<line x1="744.5" y1="-220.387" x2="744.5" y2="499.613" stroke="#D3CBBC"/>
<line x1="768.5" y1="-220.387" x2="768.5" y2="499.613" stroke="#D3CBBC"/>
<line x1="792.5" y1="-220.387" x2="792.5" y2="499.613" stroke="#D3CBBC"/>
<line x1="816.5" y1="-220.387" x2="816.5" y2="499.613" stroke="#D3CBBC"/>
<line x1="840.5" y1="-220.387" x2="840.5" y2="499.613" stroke="#D3CBBC"/>
<line x1="864.5" y1="-220.387" x2="864.5" y2="499.613" stroke="#D3CBBC"/>
<line x1="888.5" y1="-220.387" x2="888.5" y2="499.613" stroke="#D3CBBC"/>
<line x1="912.5" y1="-220.387" x2="912.5" y2="499.613" stroke="#D3CBBC"/>
<line x1="936.5" y1="-220.387" x2="936.5" y2="499.613" stroke="#D3CBBC"/>
<line x1="960.5" y1="-220.387" x2="960.5" y2="499.613" stroke="#D3CBBC"/>
<line x1="984.5" y1="-220.387" x2="984.5" y2="499.613" stroke="#D3CBBC"/>
<line x1="1008.5" y1="-220.387" x2="1008.5" y2="499.613" stroke="#D3CBBC"/>
<line x1="1032.5" y1="-220.387" x2="1032.5" y2="499.613" stroke="#D3CBBC"/>
<line x1="1056.5" y1="-220.387" x2="1056.5" y2="499.613" stroke="#D3CBBC"/>
<line x1="1080.5" y1="-220.387" x2="1080.5" y2="499.613" stroke="#D3CBBC"/>
<line x1="1104.5" y1="-220.387" x2="1104.5" y2="499.613" stroke="#D3CBBC"/>
<line x1="1128.5" y1="-220.387" x2="1128.5" y2="499.613" stroke="#D3CBBC"/>
<line x1="1152.5" y1="-220.387" x2="1152.5" y2="499.613" stroke="#D3CBBC"/>
<line x1="1176.5" y1="-220.387" x2="1176.5" y2="499.613" stroke="#D3CBBC"/>
<line x1="1200.5" y1="-220.387" x2="1200.5" y2="499.613" stroke="#D3CBBC"/>
<line x1="1224.5" y1="-220.387" x2="1224.5" y2="499.613" stroke="#D3CBBC"/>
<line x1="1248.5" y1="-220.387" x2="1248.5" y2="499.613" stroke="#D3CBBC"/>
<line x1="1272.5" y1="-220.387" x2="1272.5" y2="499.613" stroke="#D3CBBC"/>
<line x1="1296.5" y1="-220.387" x2="1296.5" y2="499.613" stroke="#D3CBBC"/>
<line x1="1320.5" y1="-220.387" x2="1320.5" y2="499.613" stroke="#D3CBBC"/>
<line x1="1344.5" y1="-220.387" x2="1344.5" y2="499.613" stroke="#D3CBBC"/>
<line x1="1368.5" y1="-220.387" x2="1368.5" y2="499.613" stroke="#D3CBBC"/>
<line x1="1392.5" y1="-220.387" x2="1392.5" y2="499.613" stroke="#D3CBBC"/>
<line x1="1416.5" y1="-220.387" x2="1416.5" y2="499.613" stroke="#D3CBBC"/>
</g>
</g>
<path d="M1440 57.6936H1090.08C833.336 57.6936 580.229 -0.000274658 360 -0.000274658C139.771 -0.000274658 0 57.6936 0 57.6936V103.613H1440V57.6936Z" fill="#D3CBBC"/>
<path d="M0 996.306H349.922C606.664 996.306 859.771 1054 1080 1054C1300.23 1054 1440 996.306 1440 996.306V950.386H0V996.306Z" fill="#D3CBBC"/>
</g>
<defs>
<clipPath id="clip0_1203_1995">
<rect width="1440" height="848.559" fill="white" transform="translate(0 103.613)"/>
</clipPath>
</defs>
</svg>
