<?xml version="1.0" encoding="UTF-8"?><svg id="Layer_2" xmlns="http://www.w3.org/2000/svg" xmlns:xlink="http://www.w3.org/1999/xlink" viewBox="0 0 301.05 302.5"><defs><style>.cls-1{fill:#fff;}.cls-2{fill:#dc1f26;}.cls-3{clip-path:url(#clippath-1);}.cls-4{clip-path:url(#clippath);}.cls-5{fill:none;}</style><clipPath id="clippath"><rect class="cls-5" width="301.05" height="302.5"/></clipPath><clipPath id="clippath-1"><rect class="cls-5" width="301.05" height="302.5"/></clipPath></defs><g id="Layer_1-2"><g id="Pinterest"><g class="cls-4"><g class="cls-3"><path class="cls-2" d="m301.05,151.25c0,83.52-67.4,151.25-150.52,151.25S0,234.77,0,151.25,67.39,0,150.52,0s150.52,67.72,150.52,151.25"/><path class="cls-1" d="m143.06,172.18c2.22,4.24,8.71,7.83,15.62,7.83,20.56,0,35.37-18.9,35.37-42.39s-18.37-39.36-42.02-39.36c-29.41,0-45.03,19.74-45.03,41.24,0,10,5.32,22.44,13.83,26.4,1.29.6,1.98.34,2.28-.91.23-.95,1.38-5.58,1.89-7.73.17-.69.08-1.28-.47-1.96-2.82-3.41-5.07-9.7-5.07-15.55,0-15.03,11.38-29.58,30.77-29.58,16.74,0,28.47,11.41,28.47,27.73,0,18.44-9.31,31.21-21.43,31.21-6.69,0-11.7-5.53-10.09-12.32,1.92-8.1,5.64-16.84,5.64-22.69,0-5.24-2.81-9.6-8.62-9.6-6.84,0-12.33,7.08-12.33,16.55,0,6.04,2.04,10.12,2.04,10.12,0,0-6.75,28.56-7.99,33.88-1.37,5.88-.83,14.17-.24,19.56,1.53.6,3.08,1.14,4.66,1.63,2.78-4.53,6.93-11.94,8.47-17.86.83-3.19,4.25-16.2,4.25-16.2"/></g></g></g></g></svg>