<?xml version="1.0" encoding="UTF-8"?><svg id="Layer_2" xmlns="http://www.w3.org/2000/svg" xmlns:xlink="http://www.w3.org/1999/xlink" viewBox="0 0 301.05 302.5"><defs><style>.cls-1{fill:#fff;}.cls-2{fill:#0165e1;}.cls-3{clip-path:url(#clippath-1);}.cls-4{clip-path:url(#clippath);}.cls-5{fill:none;}</style><clipPath id="clippath"><rect class="cls-5" width="301.05" height="302.5"/></clipPath><clipPath id="clippath-1"><rect class="cls-5" width="301.05" height="302.5"/></clipPath></defs><g id="Layer_1-2"><g id="Facebook"><g class="cls-4"><g class="cls-3"><path class="cls-2" d="m301.05,151.25c0,83.52-67.4,151.25-150.52,151.25S0,234.77,0,151.25,67.39,0,150.52,0s150.52,67.72,150.52,151.25"/><path class="cls-1" d="m177.77,158.12l3.25-21.19h-20.33v-13.75c0-5.8,2.84-11.45,11.95-11.45h9.24v-18.04s-8.39-1.43-16.41-1.43c-16.75,0-27.69,10.15-27.69,28.52v16.15h-18.61v21.19h18.61v51.23c3.73.59,7.56.89,11.46.89s7.72-.31,11.46-.89v-51.23h17.08Z"/></g></g></g></g></svg>