<?xml version="1.0" encoding="UTF-8"?><svg id="Layer_2" xmlns="http://www.w3.org/2000/svg" xmlns:xlink="http://www.w3.org/1999/xlink" viewBox="0 0 301.04 302.5"><defs><style>.cls-1{fill:#fff;}.cls-2{clip-path:url(#clippath-1);}.cls-3{clip-path:url(#clippath);}.cls-4{fill:none;}.cls-5{fill:#4396d1;}</style><clipPath id="clippath"><rect class="cls-4" width="301.04" height="302.5"/></clipPath><clipPath id="clippath-1"><rect class="cls-4" width="301.04" height="302.5"/></clipPath></defs><g id="Layer_1-2"><g id="Twitter"><g class="cls-3"><g class="cls-2"><path class="cls-5" d="m301.04,151.25c0,83.52-67.38,151.25-150.52,151.25S0,234.77,0,151.25,67.39,0,150.52,0s150.52,67.71,150.52,151.25"/><path class="cls-1" d="m129.11,198.14c43.54,0,67.36-36.07,67.36-67.36,0-1.02-.02-2.04-.07-3.06,4.62-3.34,8.64-7.51,11.81-12.26-4.24,1.88-8.81,3.15-13.6,3.73,4.89-2.93,8.64-7.57,10.41-13.1-4.58,2.71-9.64,4.68-15.03,5.75-4.32-4.6-10.47-7.48-17.28-7.48-13.08,0-23.68,10.6-23.68,23.67,0,1.86.21,3.66.61,5.4-19.67-.99-37.12-10.41-48.79-24.73-2.04,3.5-3.21,7.56-3.21,11.9,0,8.21,4.18,15.46,10.54,19.71-3.88-.12-7.53-1.19-10.72-2.96,0,.1,0,.2,0,.3,0,11.47,8.16,21.04,18.99,23.21-1.99.54-4.08.83-6.24.83-1.53,0-3.01-.15-4.45-.43,3.01,9.41,11.75,16.25,22.11,16.44-8.1,6.35-18.31,10.13-29.4,10.13-1.91,0-3.79-.11-5.65-.33,10.48,6.71,22.92,10.63,36.29,10.63"/></g></g></g></g></svg>