<?xml version="1.0" encoding="UTF-8"?><svg id="Layer_2" xmlns="http://www.w3.org/2000/svg" xmlns:xlink="http://www.w3.org/1999/xlink" viewBox="0 0 301.04 302.5"><defs><style>.cls-1{fill:#fff;}.cls-2{clip-path:url(#clippath-1);}.cls-3{clip-path:url(#clippath);}.cls-4{fill:none;}.cls-5{fill:#7e7e7e;}</style><clipPath id="clippath"><rect class="cls-4" width="301.04" height="302.5"/></clipPath><clipPath id="clippath-1"><rect class="cls-4" width="301.04" height="302.5"/></clipPath></defs><g id="Layer_1-2"><g id="Email"><g class="cls-3"><g class="cls-2"><path class="cls-5" d="m301.04,151.25c0,83.52-67.39,151.25-150.52,151.25S0,234.77,0,151.25,67.39,0,150.52,0s150.52,67.72,150.52,151.25"/><path class="cls-1" d="m107.53,108.26c-5.94,0-10.75,4.81-10.75,10.75v64.49c0,5.94,4.81,10.75,10.75,10.75h85.99c5.94,0,10.75-4.81,10.75-10.75v-64.49c0-5.94-4.81-10.75-10.75-10.75h-85.99Zm0,10.75h85.99v.03l-40.47,31.26c-1.54.96-3.5.96-5.05,0l-40.47-31.27v-.02Zm0,10.77l40.47,31.27c1.54.96,3.5.96,5.05,0l40.47-31.26v53.71s-85.99,0-85.99,0v-53.72Z"/></g></g></g></g></svg>