<?xml version="1.0" encoding="UTF-8"?><svg id="Layer_2" xmlns="http://www.w3.org/2000/svg" xmlns:xlink="http://www.w3.org/1999/xlink" viewBox="0 0 301.04 302.5"><defs><style>.cls-1{fill:#fff;}.cls-2{fill:#4a4a4a;}.cls-3{clip-path:url(#clippath-1);}.cls-4{clip-path:url(#clippath);}.cls-5{fill:none;}</style><clipPath id="clippath"><rect class="cls-5" width="301.04" height="302.5"/></clipPath><clipPath id="clippath-1"><rect class="cls-5" width="301.04" height="302.5"/></clipPath></defs><g id="Layer_1-2"><g id="Link"><g class="cls-4"><g class="cls-3"><path class="cls-2" d="m301.04,151.25c0,83.52-67.39,151.25-150.52,151.25S0,234.77,0,151.25,67.39,0,150.52,0s150.52,67.72,150.52,151.25"/><path class="cls-1" d="m105.02,155.39c-11.42,11.42-11.42,29.94,0,41.37,11.42,11.42,29.94,11.42,41.37,0l16.55-16.55-8.27-8.27-16.55,16.55c-6.86,6.85-17.96,6.85-24.82,0-6.85-6.85-6.85-17.97,0-24.82l16.55-16.55-8.27-8.27-16.55,16.55Zm33.09-33.09l8.27,8.27,16.55-16.55c6.85-6.85,17.97-6.85,24.82,0,6.86,6.85,6.86,17.97,0,24.82l-16.55,16.55,8.27,8.27,16.55-16.55c11.42-11.42,11.42-29.94,0-41.37s-29.94-11.42-41.37,0l-16.55,16.55Zm-12.41,45.5l8.27,8.27,41.37-41.37-8.27-8.27-41.37,41.37Z"/></g></g></g></g></svg>