<?xml version="1.0" encoding="utf-8"?>
<!-- Generator: Adobe Illustrator 27.8.1, SVG Export Plug-In . SVG Version: 6.00 Build 0)  -->
<svg version="1.1" id="Layer_1" xmlns="http://www.w3.org/2000/svg" xmlns:xlink="http://www.w3.org/1999/xlink" x="0px" y="0px"
	 viewBox="0 0 56 56" style="enable-background:new 0 0 56 56;" xml:space="preserve">
<style type="text/css">
	.st0{clip-path:url(#SVGID_00000087406344260584284500000010001522208052548231_);}
	.st1{clip-path:url(#SVGID_00000007428283284434006380000018161797473903089539_);fill:#FFFFFF;}
</style>
<g id="Instagram_00000085956169095212471280000001373850958367798144_">
	<g>
		<defs>
			<rect id="SVGID_1_" x="0" y="0" width="56" height="56"/>
		</defs>
		<clipPath id="SVGID_00000085211487583424595470000002176559700927762063_">
			<use xlink:href="#SVGID_1_"  style="overflow:visible;"/>
		</clipPath>
		<g style="clip-path:url(#SVGID_00000085211487583424595470000002176559700927762063_);">
			<defs>
				<rect id="SVGID_00000119091273298291611940000017086567749041874051_" x="0" y="0" width="56" height="56"/>
			</defs>
			<clipPath id="SVGID_00000021799667718028749490000015821735362287348902_">
				<use xlink:href="#SVGID_00000119091273298291611940000017086567749041874051_"  style="overflow:visible;"/>
			</clipPath>
			<path style="clip-path:url(#SVGID_00000021799667718028749490000015821735362287348902_);fill:#FFFFFF;" d="M28,15
				c-3.5,0-4,0-5.4,0.1c-1.1,0-2.2,0.2-3.2,0.6c-1.7,0.7-3.1,2-3.8,3.8c-0.4,1-0.6,2.1-0.6,3.2C15,24,15,24.5,15,28s0,4,0.1,5.4
				c0,1.1,0.2,2.2,0.6,3.2c0.7,1.7,2,3.1,3.8,3.8c1,0.4,2.1,0.6,3.2,0.6C24,41,24.5,41,28,41c3.5,0,4,0,5.4-0.1
				c1.1,0,2.2-0.2,3.2-0.6c1.7-0.7,3.1-2,3.8-3.8c0.4-1,0.6-2.1,0.6-3.2C41,32,41,31.5,41,28s0-4-0.1-5.4c0-1.1-0.2-2.2-0.6-3.2
				c-0.7-1.7-2-3.1-3.8-3.8c-1-0.4-2.1-0.6-3.2-0.6C32,15,31.5,15,28,15 M28,17.3c3.5,0,3.9,0,5.3,0.1c0.8,0,1.6,0.2,2.4,0.5
				c1.1,0.4,2,1.3,2.5,2.5c0.3,0.8,0.4,1.6,0.4,2.4c0.1,1.4,0.1,1.8,0.1,5.3s0,3.9-0.1,5.3c0,0.8-0.2,1.6-0.4,2.4
				c-0.4,1.1-1.3,2-2.5,2.5c-0.8,0.3-1.6,0.4-2.4,0.4c-1.4,0.1-1.8,0.1-5.3,0.1c-3.5,0-3.9,0-5.3-0.1c-0.8,0-1.6-0.2-2.4-0.4
				c-1.1-0.4-2-1.3-2.5-2.5c-0.3-0.8-0.4-1.6-0.4-2.4c-0.1-1.4-0.1-1.8-0.1-5.3s0-3.9,0.1-5.3c0-0.8,0.2-1.6,0.4-2.4
				c0.4-1.1,1.3-2,2.5-2.5c0.8-0.3,1.6-0.4,2.4-0.4C24.1,17.4,24.5,17.3,28,17.3"/>
			<path style="clip-path:url(#SVGID_00000021799667718028749490000015821735362287348902_);fill:#FFFFFF;" d="M28,32.3
				c-2.4,0-4.3-1.9-4.3-4.3s1.9-4.3,4.3-4.3c2.4,0,4.3,1.9,4.3,4.3S30.4,32.3,28,32.3 M28,21.3c-3.7,0-6.7,3-6.7,6.7
				c0,3.7,3,6.7,6.7,6.7c3.7,0,6.7-3,6.7-6.7S31.7,21.3,28,21.3"/>
			<path style="clip-path:url(#SVGID_00000021799667718028749490000015821735362287348902_);fill:#FFFFFF;" d="M36.5,21.1
				c0,0.9-0.7,1.6-1.6,1.6c-0.9,0-1.6-0.7-1.6-1.6c0-0.9,0.7-1.6,1.6-1.6C35.8,19.5,36.5,20.2,36.5,21.1"/>
			<path style="clip-path:url(#SVGID_00000021799667718028749490000015821735362287348902_);fill:#FFFFFF;" d="M28,56
				C12.6,56,0,43.5,0,28C0,12.6,12.5,0,28,0c15.4,0,28,12.5,28,28C56,43.4,43.4,56,28,56 M28,2.2C13.7,2.2,2.2,13.7,2.2,28
				S13.7,53.8,28,53.8S53.8,42.3,53.8,28S42.3,2.2,28,2.2"/>
		</g>
	</g>
</g>
</svg>
